<svg width="26" height="26" viewBox="0 0 26 26" fill="none" xmlns="http://www.w3.org/2000/svg">
<path d="M24.748 5.09002L20.9093 1.25135C20.7237 1.06537 20.5032 0.917908 20.2604 0.817454C20.0177 0.717001 19.7574 0.665536 19.4947 0.666019C18.9813 0.666019 18.4707 0.860686 18.08 1.25135L13.3333 5.99935H1.33333C0.979711 5.99935 0.640573 6.13983 0.390524 6.38988C0.140476 6.63993 0 6.97906 0 7.33269V24.666C0 25.0196 0.140476 25.3588 0.390524 25.6088C0.640573 25.8589 0.979711 25.9994 1.33333 25.9994H18.6667C19.0203 25.9994 19.3594 25.8589 19.6095 25.6088C19.8595 25.3588 20 25.0196 20 24.666V12.666L24.748 7.91802C25.1387 7.52735 25.3333 7.01535 25.3333 6.50335C25.3333 5.99135 25.1387 5.48069 24.748 5.09002ZM11.3333 17.562L8.43733 14.666L16.828 6.27535L19.724 9.17135L11.3333 17.562ZM7.91867 15.7767L10.26 18.0807L8 17.9994L7.91867 15.7767ZM17.3333 23.3327H2.66667V8.66602H10.6667L6.42667 12.906C6.036 13.2967 5.78933 13.9887 5.588 14.6247C5.37467 15.2914 5.33333 16.0327 5.33333 16.5847V20.666H9.41467C9.96667 20.666 10.892 20.5327 11.5093 20.2794C12.128 20.026 12.704 19.8167 13.0933 19.426L17.3333 15.3327V23.3327ZM20.6667 8.22869L17.7707 5.33269L19.4947 3.60869L22.3893 6.50469L20.6667 8.22869Z" fill="#0165FC"/>
</svg>
